<svg width="128" height="128" viewBox="0 0 128 128" xmlns="http://www.w3.org/2000/svg">
  <defs>
    <linearGradient id="gradient" x1="0%" y1="0%" x2="100%" y2="100%">
      <stop offset="0%" style="stop-color:#667eea;stop-opacity:1" />
      <stop offset="100%" style="stop-color:#764ba2;stop-opacity:1" />
    </linearGradient>
  </defs>
  
  <!-- Background circle -->
  <circle cx="64" cy="64" r="60" fill="url(#gradient)" stroke="#fff" stroke-width="4"/>
  
  <!-- Book icon -->
  <rect x="35" y="45" width="25" height="35" rx="2" fill="#fff" opacity="0.9"/>
  <rect x="40" y="50" width="15" height="2" fill="#667eea"/>
  <rect x="40" y="55" width="15" height="2" fill="#667eea"/>
  <rect x="40" y="60" width="12" height="2" fill="#667eea"/>
  <rect x="40" y="65" width="15" height="2" fill="#667eea"/>
  <rect x="40" y="70" width="10" height="2" fill="#667eea"/>
  
  <!-- AI/Sparkle icon -->
  <path d="M75 35 L80 45 L90 45 L82 52 L85 62 L75 55 L65 62 L68 52 L60 45 L70 45 Z" fill="#fff" opacity="0.9"/>
  <circle cx="75" cy="48" r="2" fill="#667eea"/>
  
  <!-- Offline indicator -->
  <circle cx="90" cy="90" r="8" fill="#4ade80" stroke="#fff" stroke-width="2"/>
  <path d="M85 90 L88 93 L95 86" stroke="#fff" stroke-width="2" fill="none" stroke-linecap="round" stroke-linejoin="round"/>
</svg>
